<svg id="visual" viewBox="0 0 500 300" width="500" height="300" xmlns="http://www.w3.org/2000/svg" xmlns:xlink="http://www.w3.org/1999/xlink" version="1.1"><path d="M0 201L13.8 197.2C27.7 193.3 55.3 185.7 83.2 183.2C111 180.7 139 183.3 166.8 187.5C194.7 191.7 222.3 197.3 250 202.2C277.7 207 305.3 211 333.2 213.7C361 216.3 389 217.7 416.8 211.5C444.7 205.3 472.3 191.7 486.2 184.8L500 178L500 301L486.2 301C472.3 301 444.7 301 416.8 301C389 301 361 301 333.2 301C305.3 301 277.7 301 250 301C222.3 301 194.7 301 166.8 301C139 301 111 301 83.2 301C55.3 301 27.7 301 13.8 301L0 301Z" fill="#EEEEEE" stroke-linecap="round" stroke-linejoin="miter"></path></svg>