<svg id="visual" viewBox="0 0 500 300" width="500" height="300" xmlns="http://www.w3.org/2000/svg" xmlns:xlink="http://www.w3.org/1999/xlink" version="1.1"><path d="M0 206L13.8 202.3C27.7 198.7 55.3 191.3 83.2 187.2C111 183 139 182 166.8 180.7C194.7 179.3 222.3 177.7 250 182.7C277.7 187.7 305.3 199.3 333.2 203C361 206.7 389 202.3 416.8 199.8C444.7 197.3 472.3 196.7 486.2 196.3L500 196L500 301L486.2 301C472.3 301 444.7 301 416.8 301C389 301 361 301 333.2 301C305.3 301 277.7 301 250 301C222.3 301 194.7 301 166.8 301C139 301 111 301 83.2 301C55.3 301 27.7 301 13.8 301L0 301Z" fill="#21014e" stroke-linecap="round" stroke-linejoin="miter"></path></svg>